<?xml version="1.0" standalone="no"?><!DOCTYPE svg PUBLIC "-//W3C//DTD SVG 1.1//EN" "http://www.w3.org/Graphics/SVG/1.1/DTD/svg11.dtd"><svg height="150" node-id="1" sillyvg="true" template-height="150" template-width="150" version="1.1" viewBox="0 0 150 150" width="150" xmlns="http://www.w3.org/2000/svg" xmlns:xlink="http://www.w3.org/1999/xlink"><defs node-id="56"></defs><g node-id="187"><path d="M 129.69 59.33 C 129.69 89.41 105.30 113.80 75.22 113.80 C 45.14 113.80 20.75 89.41 20.75 59.33 C 20.75 29.25 45.14 4.86 75.22 4.86 C 105.30 4.86 129.69 29.25 129.69 59.33 Z" fill="#332e2d" fill-rule="nonzero" group-id="1" node-id="62" stroke="none" target-height="108.94" target-width="108.94" target-x="20.75" target-y="4.86"></path></g><g node-id="188"><g node-id="198"><path d="M 45.22 98.88 C 45.22 104.45 40.71 108.96 35.14 108.96 C 29.57 108.96 25.06 104.45 25.06 98.88 C 25.06 93.31 29.57 88.80 35.14 88.80 C 40.71 88.80 45.22 93.31 45.22 98.88 Z" fill="#332e2d" fill-rule="nonzero" group-id="2,12" node-id="69" stroke="none" target-height="20.159996" target-width="20.160002" target-x="25.06" target-y="88.8"></path></g><g node-id="199"><path d="M 38.07 113.79 C 38.07 124.18 29.65 132.60 19.26 132.60 C 8.87 132.60 0.45 124.18 0.45 113.79 C 0.45 103.40 8.87 94.98 19.26 94.98 C 29.65 94.98 38.07 103.40 38.07 113.79 Z" fill="#332e2d" fill-rule="nonzero" group-id="2,13" node-id="74" stroke="none" target-height="37.620003" target-width="37.62" target-x="0.45" target-y="94.98"></path></g><g node-id="200"><path d="M 127.90 98.88 C 127.90 104.45 123.39 108.96 117.82 108.96 C 112.25 108.96 107.74 104.45 107.74 98.88 C 107.74 93.31 112.25 88.80 117.82 88.80 C 123.39 88.80 127.90 93.31 127.90 98.88 Z" fill="#332e2d" fill-rule="nonzero" group-id="2,14" node-id="79" stroke="none" target-height="20.159996" target-width="20.160004" target-x="107.74" target-y="88.8"></path></g><path d="M 150.00 113.79 C 150.00 124.18 141.58 132.60 131.19 132.60 C 120.80 132.60 112.38 124.18 112.38 113.79 C 112.38 103.40 120.80 94.98 131.19 94.98 C 141.58 94.98 150.00 103.40 150.00 113.79 Z" fill="#332e2d" fill-rule="nonzero" group-id="2,15" node-id="84" stroke="none" target-height="37.620003" target-width="37.620003" target-x="112.38" target-y="94.98"></path></g><g node-id="189"><path d="M 121.02 68.49 C 121.02 95.81 100.64 117.96 75.50 117.96 C 50.36 117.96 29.98 95.81 29.98 68.49 C 29.98 41.17 50.36 19.02 75.50 19.02 C 100.64 19.02 121.02 41.17 121.02 68.49 Z" fill="#f8b6a8" fill-rule="nonzero" group-id="3" node-id="90" stroke="none" target-height="98.94" target-width="91.03999" target-x="29.98" target-y="19.02"></path></g><g node-id="190"><path d="M 121.02 40.14 C 112.41 23.19 95.65 11.69 76.38 11.69 C 50.92 11.69 29.84 31.77 26.16 57.96 C 31.45 61.25 37.57 63.16 44.12 63.16 C 59.32 63.16 72.28 53.02 77.52 38.71 C 82.61 45.96 90.68 50.68 99.80 50.68 C 108.31 50.67 115.91 46.57 121.02 40.14 Z" fill="#332e2d" fill-rule="nonzero" group-id="4" node-id="95" stroke="none" target-height="51.47" target-width="94.86" target-x="26.16" target-y="11.69"></path></g><g node-id="191"><g node-id="202"><g node-id="211"><path d="M 39.37 79.37 C 39.37 85.89 34.50 91.17 28.49 91.17 C 22.48 91.17 17.61 85.89 17.61 79.37 C 17.61 72.85 22.48 67.57 28.49 67.57 C 34.50 67.57 39.37 72.85 39.37 79.37 Z" fill="#f8b6a8" fill-rule="nonzero" group-id="5,16,25" node-id="104" stroke="none" target-height="23.599998" target-width="21.759998" target-x="17.61" target-y="67.57"></path></g><path d="M 29.69 86.02 C 25.57 86.43 21.93 83.79 21.56 80.10 C 21.19 76.42 24.23 73.09 28.35 72.68" fill="#e88879" fill-rule="nonzero" group-id="5,16,26" node-id="109" stroke="none" target-height="13.75" target-width="8.5" target-x="21.19" target-y="72.68"></path></g><g node-id="203"><g node-id="213"><path d="M 132.83 79.37 C 132.83 85.89 127.96 91.17 121.95 91.17 C 115.94 91.17 111.07 85.89 111.07 79.37 C 111.07 72.85 115.94 67.57 121.95 67.57 C 127.96 67.57 132.83 72.85 132.83 79.37 Z" fill="#f8b6a8" fill-rule="nonzero" group-id="5,17,27" node-id="117" stroke="none" target-height="23.599998" target-width="21.760002" target-x="111.07" target-y="67.57"></path></g><path d="M 120.76 86.02 C 124.88 86.43 128.52 83.79 128.89 80.10 C 129.26 76.42 126.22 73.09 122.10 72.68" fill="#e88879" fill-rule="nonzero" group-id="5,17,28" node-id="122" stroke="none" target-height="13.75" target-width="8.499992" target-x="120.76" target-y="72.68"></path></g></g><g node-id="192"><g node-id="204"><path d="M 91.87 97.51 C 91.87 105.57 84.42 110.96 75.22 110.96 C 66.02 110.96 58.57 105.56 58.57 97.51" fill="#ea978f" fill-rule="nonzero" group-id="6,18" node-id="131" stroke="none" target-height="13.449997" target-width="33.300003" target-x="58.57" target-y="97.51"></path></g><g node-id="205"><path d="M 65.45 108.57 C 68.35 110.17 71.68 110.96 75.23 110.96 C 78.78 110.96 82.27 110.11 85.00 108.58 C 84.17 104.62 80.00 101.34 75.23 101.34 C 70.47 101.34 66.28 104.61 65.45 108.57 Z" fill="#dd4343" fill-rule="nonzero" group-id="6,19" node-id="136" stroke="none" target-height="9.620003" target-width="19.550003" target-x="65.45" target-y="101.34"></path></g><path d="M 69.78 100.84 L 80.67 100.84 C 82.77 100.84 84.47 99.35 84.47 97.51 L 65.98 97.51 C 65.98 99.34 67.68 100.84 69.78 100.84 Z" fill="#ffffff" fill-rule="nonzero" group-id="6,20" node-id="141" stroke="none" target-height="3.3299942" target-width="18.489998" target-x="65.98" target-y="97.51"></path></g><g node-id="193"><path d="M 76.62 84.93 L 76.62 77.01 C 76.62 75.18 75.13 73.69 73.30 73.69 L 73.30 73.69 C 71.47 73.69 69.98 75.18 69.98 77.01 L 69.98 84.93 L 69.98 89.72 C 69.98 90.74 70.81 91.57 71.83 91.57 L 76.62 91.57 L 80.41 91.57 C 82.24 91.57 83.73 90.08 83.73 88.25 L 83.73 88.25 C 83.73 86.42 82.24 84.93 80.41 84.93 L 76.62 84.93 Z" fill="#e88879" fill-rule="nonzero" group-id="7" node-id="147" stroke="none" target-height="17.879997" target-width="13.75" target-x="69.98" target-y="73.69"></path></g><g node-id="194"><g node-id="207"><path d="M 62.23 67.70 L 51.88 67.70 C 50.74 67.70 49.82 66.78 49.82 65.64 C 49.82 64.50 50.74 63.58 51.88 63.58 L 62.24 63.58 C 63.38 63.58 64.30 64.50 64.30 65.64 C 64.30 66.78 63.37 67.70 62.23 67.70 Z" fill="#332e2d" fill-rule="nonzero" group-id="8,21" node-id="154" stroke="none" target-height="4.119995" target-width="14.480003" target-x="49.82" target-y="63.58"></path></g><g node-id="208"><path d="M 98.57 67.70 L 88.21 67.70 C 87.07 67.70 86.15 66.78 86.15 65.64 C 86.15 64.50 87.07 63.58 88.21 63.58 L 98.57 63.58 C 99.71 63.58 100.63 64.50 100.63 65.64 C 100.63 66.78 99.71 67.70 98.57 67.70 Z" fill="#332e2d" fill-rule="nonzero" group-id="8,22" node-id="159" stroke="none" target-height="4.119995" target-width="14.479996" target-x="86.15" target-y="63.58"></path></g><g node-id="209"><path d="M 60.37 73.74 C 60.37 75.57 58.89 77.05 57.06 77.05 C 55.23 77.05 53.75 75.57 53.75 73.74 C 53.75 71.91 55.23 70.43 57.06 70.43 C 58.89 70.43 60.37 71.91 60.37 73.74 Z" fill="#332e2d" fill-rule="nonzero" group-id="8,23" node-id="164" stroke="none" target-height="6.6200027" target-width="6.619999" target-x="53.75" target-y="70.43"></path></g><path d="M 96.70 73.74 C 96.70 75.57 95.22 77.05 93.39 77.05 C 91.56 77.05 90.08 75.57 90.08 73.74 C 90.08 71.91 91.56 70.43 93.39 70.43 C 95.22 70.43 96.70 71.91 96.70 73.74 Z" fill="#332e2d" fill-rule="nonzero" group-id="8,24" node-id="169" stroke="none" target-height="6.6200027" target-width="6.619995" target-x="90.08" target-y="70.43"></path></g><g node-id="195"><path d="M 31.87 150.32 C 31.87 135.08 51.28 122.73 75.22 122.73 C 99.16 122.73 118.57 135.08 118.57 150.32" fill="#09aa8b" fill-rule="nonzero" group-id="9" node-id="175" stroke="none" target-height="27.590004" target-width="86.7" target-x="31.87" target-y="122.73"></path></g><g node-id="196"><path d="M 66.39 116.53 L 84.06 116.53 L 84.06 134.20 L 66.39 134.20 Z" fill="#f8b6a8" fill-rule="nonzero" group-id="10" node-id="180" stroke="none" target-height="17.669998" target-width="17.669998" target-x="66.39" target-y="116.53"></path></g><path d="M 57.84 124.67 C 57.70 129.10 59.25 133.17 62.30 135.99 C 66.16 139.58 71.48 139.41 75.22 136.15 C 79.23 140.00 84.75 140.05 88.75 135.77 C 91.52 132.81 92.83 128.90 92.59 124.66 C 89.95 123.84 87.48 123.44 84.64 123.01 L 76.10 130.78 C 75.60 131.23 74.84 131.23 74.35 130.77 L 65.91 122.92 C 63.05 123.37 60.49 123.84 57.84 124.67 Z" fill="#ffffff" fill-rule="nonzero" group-id="11" node-id="185" stroke="none" target-height="17.130005" target-width="35.13" target-x="57.7" target-y="122.92"></path></svg>