<svg viewBox="0 0 1200 1200" xmlns="http://www.w3.org/2000/svg" data-name="图层 1" id="图层_1"><defs><style>.cls-1{fill:#ee398b;}.cls-2{fill:#f1603c;}.cls-3{fill:#2d234f;}.cls-4{fill:#ffeedb;}.cls-5{fill:#f3968d;}.cls-6{fill:#fff;}.cls-7{fill:#01c3c2;}.cls-8{fill:#fbad3d;}</style></defs><title>头像</title><path d="M356.23,849.21A75.16,75.16,0,1,0,212,891.43c.66,2.26,1.45,4.45,2.3,6.61a75.12,75.12,0,0,0-45.61,91.35,75.17,75.17,0,1,0,93.25,51,75.16,75.16,0,0,0,51-93.24c-.66-2.27-1.45-4.46-2.3-6.62A75.11,75.11,0,0,0,356.23,849.21Z" class="cls-1"></path><path d="M112.29,1084.2A80.82,80.82,0,0,1,162,985.74a81,81,0,0,1,50.32-92.9l3.92,10.4A69.82,69.82,0,0,0,174,987.83l1.55,5.34-5.32,1.56A69.67,69.67,0,0,0,123,1081.07Z" class="cls-2"></path><path d="M212.43,1139l-3.12-10.67A69.69,69.69,0,0,0,256.57,1042l-1.56-5.33,5.33-1.57a69.6,69.6,0,0,0,47.26-86.34l10.66-3.13a80.82,80.82,0,0,1-49.69,98.46A80.82,80.82,0,0,1,212.43,1139Z" class="cls-2"></path><path d="M778.36,725.68a75.16,75.16,0,0,1,144.28-42.21c.66,2.26,1.18,4.54,1.62,6.81a75.11,75.11,0,0,1,87.66,52.36,75.16,75.16,0,1,1-51,93.24,75.15,75.15,0,0,1-93.24-51c-.67-2.27-1.18-4.54-1.63-6.81A75.12,75.12,0,0,1,778.36,725.68Z" class="cls-1"></path><path d="M1006.58,744.2a69.81,69.81,0,0,0-81.17-48.48l-2.3-10.88a81,81,0,0,1,94.14,56.23Z" class="cls-2"></path><path d="M1032.92,895.53a80.85,80.85,0,0,1-77.36-58.08,5.56,5.56,0,1,1,10.67-3.13,69.6,69.6,0,0,0,86.34,47.26,5.56,5.56,0,1,1,3.13,10.67A81.33,81.33,0,0,1,1032.92,895.53Z" class="cls-3"></path><circle r="68.34" cy="762.69" cx="200.96" class="cls-4"></circle><circle r="38.61" cy="773.06" cx="206.64" class="cls-5"></circle><circle r="68.34" cy="548.32" cx="852.9" class="cls-4"></circle><circle r="38.61" cy="558.69" cx="858.58" class="cls-5"></circle><path d="M843.64,589.55C898.29,771.9,785,896.6,614.5,947.7S280.79,957,226.14,774.62s41.42-364.43,211.94-415.53S789,407.2,843.64,589.55Z" class="cls-4"></path><path d="M486.07,973.46a350.24,350.24,0,0,1-36.95-1.92,5.56,5.56,0,0,1-4.94-6.11,5.49,5.49,0,0,1,6.11-4.94c50.11,5.31,104.81-.78,162.61-18.11,64.32-19.27,119.53-49.17,159.66-86.45a5.56,5.56,0,0,1,7.57,8.14c-41.38,38.43-98.1,69.19-164,89C570.73,966.63,527.15,973.46,486.07,973.46Z" class="cls-3"></path><path d="M833.6,478.08C779.21,296.61,588,193.6,406.54,248S122.06,493.57,176.44,675l142.42-42.68L302.7,438.26l35.44,188.32L590.46,551,534.43,400l78.84,144.1,93.63-28.06-47.76-74.18,76.5,65.56Z" class="cls-1"></path><circle r="121.77" cy="735.5" cx="369" class="cls-6"></circle><circle r="72.7" cy="747.96" cx="372.73" class="cls-7"></circle><circle r="76.67" cy="710.11" cx="400.49" class="cls-8"></circle><path d="M311.23,848.25a5.44,5.44,0,0,1-2.63-.67,127.33,127.33,0,1,1,140.64-211,5.56,5.56,0,1,1-7,8.64A116.22,116.22,0,1,0,313.87,837.8a5.56,5.56,0,0,1-2.64,10.45Z" class="cls-3"></path><path d="M554.05,781.49a29.58,29.58,0,1,1,58.94,5" class="cls-5"></path><path d="M613,792a3.7,3.7,0,0,1-.47,0,5.55,5.55,0,0,1-5.07-6,24,24,0,0,0-47.86-4,5.55,5.55,0,0,1-11.07-.93,35.12,35.12,0,1,1,70,5.9A5.55,5.55,0,0,1,613,792Z" class="cls-3"></path><circle r="81.01" cy="380.43" cx="746.38" class="cls-1"></circle><path d="M806.93,331.32A81,81,0,0,0,701.25,215.67a81,81,0,0,0-92.41-36.56c-1.56.46-3,1-4.55,1.59A80.93,80.93,0,0,0,464,183.26a80.82,80.82,0,0,0-113.6,24.32A80.87,80.87,0,0,0,236.51,264.2a80.85,80.85,0,0,0-52.45,53.14,80.93,80.93,0,0,0-49.68,146.84,80.88,80.88,0,0,0,7.18,148,49,49,0,1,0,69.84-5.67,80.84,80.84,0,0,0,6.16-135.78,81,81,0,0,0,41.21-48.57,80.86,80.86,0,0,0,82-64.38,80.52,80.52,0,0,0,43.61-34,80.83,80.83,0,0,0,105.51-34.07,80.83,80.83,0,0,0,67.79,10.43c1.56-.45,3-1,4.54-1.58a81,81,0,0,0,92.14,36.09,81.87,81.87,0,0,0,14.95-6,81,81,0,0,0,53.92,38.23,81,81,0,1,0,83.72-35.48Z" class="cls-1"></path><path d="M139.56,617.32A86.45,86.45,0,0,1,124.42,463.4a86.49,86.49,0,0,1,55.66-151.66A86.63,86.63,0,0,1,231.78,260a86.4,86.4,0,0,1,116.56-59.33,86.36,86.36,0,0,1,113.75-25.07A86.48,86.48,0,0,1,606.6,174l.68-.2a86.44,86.44,0,0,1,96,34.72A86.51,86.51,0,0,1,815.48,327.7a86.3,86.3,0,0,1,58.79,58.74l-10.67,3.12a75.28,75.28,0,0,0-57.76-52.79l-8-1.6,4.44-6.87a75.41,75.41,0,0,0-98.43-107.7l-4.68,2.45-2.69-4.55a75.3,75.3,0,0,0-86.06-34.05c-1,.29-2,.64-2.92,1l-5.61,2-2.34-3.9a75.37,75.37,0,0,0-130.69,2.38l-2.92,5.3-5-3.37a75.27,75.27,0,0,0-105.79,22.67l-2.62,4.18L348,212.61a75.3,75.3,0,0,0-106,52.73l-.66,3.15-3.07,1A75.53,75.53,0,0,0,189.37,319l-1.25,4-4.25-.14a75.8,75.8,0,0,0-23.68,3,75.37,75.37,0,0,0-22.58,133.79l7.54,5.37-8.28,4.13A75.33,75.33,0,0,0,143.55,607Z" class="cls-2"></path><path d="M580.72,861.78A103.73,103.73,0,0,1,546.1,856a5.56,5.56,0,0,1,4.13-10.32c2.42,1,59.67,22.94,94.15-30a5.55,5.55,0,1,1,9.31,6C632.52,854.18,603.35,861.78,580.72,861.78Z" class="cls-3"></path><circle r="121.77" cy="638.99" cx="698.79" class="cls-6"></circle><circle r="72.7" cy="651.46" cx="702.52" class="cls-7"></circle><circle r="21.88" cy="622.17" cx="724.02" class="cls-6"></circle><path d="M803.42,705.74a5.55,5.55,0,0,1-4.88-8.19,116.22,116.22,0,1,0-213.12-90.2A5.56,5.56,0,1,1,574.83,604a127.33,127.33,0,1,1,233.49,98.83A5.55,5.55,0,0,1,803.42,705.74Z" class="cls-3"></path><circle r="76.67" cy="629.39" cx="727.67" class="cls-8"></circle></svg>