<svg
      xmlns="http://www.w3.org/2000/svg"
      xmlns:xlink="http://www.w3.org/1999/xlink"
      t="1720175832308"
      class="icon"
      viewBox="0 0 1088 1024"
      version="1.1"
      p-id="8477"
      width="212.5"
      height="200"
      style="width: 200px">
      <path
        d="M560 216.512A341.056 341.056 0 0 1 730.688 512a341.12 341.12 0 0 1-170.56 295.552 340.992 340.992 0 0 1-126.208-464.128 340.992 340.992 0 0 1 121.984-124.544l4.224-2.432z"
        fill="#f5a42f"
        opacity=".5"
        p-id="8478" />
      <path
        d="M389.824 512a341.184 341.184 0 1 0 682.432 0A341.184 341.184 0 0 0 389.76 512z"
        fill="#f5a42f"
        opacity=".5"
        p-id="8479" />
      <path
        d="M48.192 512a341.184 341.184 0 1 0 682.432 0A341.184 341.184 0 0 0 48.192 512z"
        fill="#f5a42f"
        opacity=".5"
        p-id="8480" />
      <path
        d="M389.376 170.752a341.184 341.184 0 1 1 0 682.368 341.184 341.184 0 0 1 0-682.368z m0 34.176a307.072 307.072 0 1 0 0 614.144 307.072 307.072 0 0 0 0-614.144z"
        fill="#f5a42f"
        p-id="8481" />
      <path
        d="M730.624 170.752a341.184 341.184 0 1 1 0 682.368 341.184 341.184 0 0 1 0-682.368z m0 34.176a307.072 307.072 0 1 0 0 614.144 307.072 307.072 0 0 0 0-614.144z"
        fill="#f5a42f"
        p-id="8482" />
    </svg>