<svg xml:space="preserve" style="enable-background:new 0 0 1024 1024;" viewBox="0 0 1024 1024" y="0px" x="0px" xmlns:xlink="http://www.w3.org/1999/xlink" xmlns="http://www.w3.org/2000/svg" id="图层_1" version="1.1">
<style type="text/css">
	.st0{fill:url(#椭圆形_1_);}
	.st1{opacity:0.9;}
	.st2{fill:url(#SVGID_1_);}
	.st3{fill:url(#SVGID_2_);}
	.st4{opacity:0.32;fill:url(#路径_1_);enable-background:new    ;}
	.st5{fill:url(#SVGID_3_);}
	.st6{fill:#CDE0FC;}
	.st7{opacity:0.8;}
	.st8{fill:#D7E9FF;}
	.st9{fill:#63A6F9;}
	.st10{fill:url(#SVGID_4_);}
	.st11{fill:url(#SVGID_5_);}
	.st12{fill:url(#SVGID_6_);}
	.st13{fill:url(#SVGID_7_);}
	.st14{fill:url(#SVGID_8_);}
</style>
<linearGradient gradientTransform="matrix(480 0 0 250 -161842 -83255)" y2="336.7625" x2="338.2462" y1="335.2688" x1="338.2462" gradientUnits="userSpaceOnUse" id="椭圆形_1_">
	<stop style="stop-color:#CFDFFA" offset="6.050502e-08"></stop>
	<stop style="stop-color:#D3E2FA;stop-opacity:0.6178" offset="0.3822"></stop>
	<stop style="stop-color:#E0E9FB;stop-opacity:0.2214" offset="0.7786"></stop>
	<stop style="stop-color:#EAF0FC;stop-opacity:0" offset="1"></stop>
</linearGradient>
<ellipse ry="219.7" rx="421.9" cy="913.3" cx="516.2" class="st0" id="椭圆形"></ellipse>
<g class="st1">
	
		<linearGradient gradientTransform="matrix(-1 0 0 1 1016.5887 2)" y2="311" x2="330.739" y1="197.4" x1="330.739" gradientUnits="userSpaceOnUse" id="SVGID_1_">
		<stop style="stop-color:#CFDFFA" offset="0"></stop>
		<stop style="stop-color:#EAF0FC;stop-opacity:0" offset="1"></stop>
	</linearGradient>
	<path d="M625,305L625,305L625,305c1.1,0.1,2.3,0.2,3.5,0.2s2.3-0.1,3.5-0.2h79.1c6.7,5,15.1,8,24.2,8
		c22.3,0,40.4-18.1,40.4-40.4s-18.1-40.4-40.4-40.4c-2,0-3.9,0.1-5.8,0.4c-4.3-10.9-14.9-18.7-27.3-18.7c-4.2,0-8.1,0.9-11.7,2.5
		c-5.8-10.2-16.8-17-29.4-17c-18.7,0-33.9,15.2-33.9,33.9c0,2.4,0.2,4.6,0.7,6.9c-17.7,0.3-31.9,14.8-31.9,32.5
		C595.9,289.4,608.6,303.3,625,305z" class="st2"></path>
	
		<linearGradient gradientTransform="matrix(-1 0 0 1 1016.5887 2)" y2="447.1" x2="641.6887" y1="299" x1="641.6887" gradientUnits="userSpaceOnUse" id="SVGID_2_">
		<stop style="stop-color:#CFDFFA" offset="1.210100e-07"></stop>
		<stop style="stop-color:#EAF0FC;stop-opacity:0" offset="1"></stop>
	</linearGradient>
	<path d="M279.6,440L279.6,440h0.2c1.8,0.2,3.6,0.3,5.4,0.3s3.7-0.1,5.5-0.3h143.9c7.7,5.7,17.3,9.1,27.6,9.1
		c25.7,0,46.6-20.9,46.6-46.6s-20.9-46.6-46.6-46.6c-1.5,0-3.1,0.1-4.6,0.2c-7.5-15.5-23.3-26.1-41.6-26.1c-2.2,0-4.4,0.2-6.5,0.5
		c-11.1-17.7-30.8-29.5-53.2-29.5c-31,0-56.7,22.4-61.8,51.9c-3-0.6-6-1-9.2-1c-24.4,0-44.3,19.8-44.3,44.3
		C241,418.6,257.8,437.2,279.6,440z" class="st3"></path>
</g>
<linearGradient gradientTransform="matrix(78.2896 93.302 155.5811 -130.548 -78214.0469 13250.7969)" y2="337.3229" x2="337.5679" y1="335.6909" x1="338.0478" gradientUnits="userSpaceOnUse" id="路径_1_">
	<stop style="stop-color:#BFD4FA;stop-opacity:0" offset="0"></stop>
	<stop style="stop-color:#5792F0" offset="0.6012"></stop>
	<stop style="stop-color:#5792F0;stop-opacity:0" offset="1"></stop>
</linearGradient>
<polygon points="641.6,704.9 805.1,748 662,796.8 482.6,793.5" class="st4" id="路径"></polygon>
<g>
	
		<linearGradient gradientTransform="matrix(-0.8997 -0.4365 -0.4365 0.8997 817.6086 177.2029)" y2="524.0964" x2="-180.7905" y1="524.0964" x1="-49.5938" gradientUnits="userSpaceOnUse" id="SVGID_3_">
		<stop style="stop-color:#B5D1FC" offset="0"></stop>
		<stop style="stop-color:#94BAF6" offset="1"></stop>
	</linearGradient>
	<path d="M658.6,761.1c4.7-6.9,4.3-11.2,9.2-14.2c10.7-6.6,22,7.8,39.7,6.8c25.9-1.4,50-34.9,44.5-49.7
		c-1.8-4.6-7.2-9.5-5.2-13.8c1.4-2.9,5.2-3.8,5.9-3.9c7.7-1.6,13.7,6.8,16.2,5s-0.9-11.6-2.2-15.2c-1.9-5.6-4-8.6-2.4-11.3
		c0.9-1.5,2-1.7,5-3.3c4.6-2.2,9.2-4.3,10.8-7.1c3-5.4,1.1-11.2-0.2-14.8c-3-8.8-12.6-24.6-30.6-25.6c-14.1-0.8-27.3,8.3-31.4,18.1
		c-1.3,3.3-1.1,5.2-3.5,8.5c-4,5.5-12.1,10.8-19.7,9.1c-4.7-1.1-7.3-4.8-10.8-3.5c-3.3,1.2-4.8,6-5.1,9.4c-0.5,6.5,4.2,10,2.6,12
		c-1.9,2.3-11.2,0.1-15.3-1.2c-1.4-0.5-2.8-1-4.3-0.4c-2.4,0.9-4.1,4.2-4,7.1c0.2,5.7,7.6,6.8,7.9,12.8c0.2,2.8-1.1,6-3.5,7.3
		c-2.9,1.6-6.1-0.4-14.2-3.5c-10-3.8-15.1-5.8-18.7-4.5c-4.4,1.6-6.3,6.4-8.7,12.2c-4.7,11.9-3.3,22.8-2.6,26.5
		c1.8,10,5.1,12.6,8,20.8c2.6,7.8,4.5,19.8-0.5,37.1C644.5,776.9,653.9,768.4,658.6,761.1z" class="st5"></path>
	<path d="M672.6,769.8c-11.4,0.2-22.7,2.6-33.3,6.8c-2.2,0.9-12.2,7.2-14,5c-1.1-1.4,1.8-6.6,2.4-8.2
		c1.1-3.3,2.2-6.6,3.7-9.7c4.6-9.3,13.1-16.7,22.9-19.9c1.6-0.5,3.2-1,4.8-1.3c1.3-0.3,2.7-0.5,4-0.7c10.4-1.4,18.3-2.1,28.6-4.3
		c8.1-1.6,14.5-5.9,19.2-12.8c4.7-6.7,10.5-12.3,17-17.5c3.7-3,9.1-4.4,13.8-4.3c2.4,0.1,4.7,1.1,6.8,2.3c3.5,1.8,7.1,4,10.8,3.1
		c2.5-0.5,4.4-2.5,6.4-3.9c4.9-3.7,11.6-5.1,17.6-3.6c5.9,1.5,11.1,6.2,12.9,12.2c1.2,4,0.7,8.4,2,12.4c1.4,4.5,2.1,7.7,0.8,12.2
		c-1.1,3.8-3.1,8-7,9.8c-4.4,2-9-2.8-13.9-2.9c-1,0-2.2,0.4-2.5,1.3c-0.3,0.8,0.1,1.5,0.3,2.2c1.2,4-3.2,7.6-7.3,7.5
		c-3.8,0-7.2-2.1-10.4-3.9c-3.5-2-7.1-3.9-11-4.9c-1.9-0.5-2.1,1-2.4,2.4c-0.5,1.6-0.8,3.4-1.3,5c-0.7,2.5-1.6,4.8-2.9,7.1
		c-2,3.5-4.4,6.9-7.6,9.3c-5.7,4.3-13.4,5.3-20.5,4.7c-7.2-0.6-14.1-2.7-21.2-4C685.2,770.1,678.9,769.6,672.6,769.8z" class="st6"></path>
	<g class="st7">
		<path d="M731.2,666.7c-4,5.6-8,11.2-12.1,16.7c-8.2,11.1-16.8,21.8-25.7,32.3c-4.5,5.2-9.1,10.4-13.8,15.4
			c-4.7,4.9-9.6,9.9-14.6,14.6c-4.9,4.7-10.2,9.3-15.7,13.4c-5.6,4.1-11.3,8-17.5,11c6.1-3.1,11.8-7,17.3-11.2s10.7-8.7,15.7-13.4
			c5-4.7,9.9-9.6,14.6-14.6s9.3-10.2,13.8-15.4c8.9-10.4,17.5-21.2,25.8-32.2c4.1-5.5,8.3-11.1,12.2-16.7c4.1-5.7,8-11.3,11.8-17
			C739.3,655.3,735.5,661.1,731.2,666.7z" class="st8"></path>
	</g>
</g>
<g>
	<g>
		<path d="M647.1,529.3H462v-71.3c0-6.9,5.2-12.8,12-13.3c0.3,0,0.7,0,1,0h77c7.1,0,13.1,5.2,13.1,11.4v81.9
			c0,9.8,7.3,18.2,17,19.1c11.1,1,20.5-7.8,20.5-18.7v-82.4c0-26.9-22.7-48.8-50.6-48.8h-77c-12.5,0-24.8,4.4-34.5,12.6
			c-10.2,8.6-16.1,20-16.1,31.3v78.3h-44.4c-28.1,0-50.9,22.8-50.9,50.9v161.5c0,28.1,22.8,50.9,50.9,50.9h267
			c28.1,0,50.9-22.8,51-50.9V580.2C698,552.1,665.2,529.3,647.1,529.3z" class="st9"></path>
		<linearGradient y2="604.0576" x2="703.2704" y1="604.0576" x1="334.3802" gradientUnits="userSpaceOnUse" id="SVGID_4_">
			<stop style="stop-color:#BFD4FA" offset="0"></stop>
			<stop style="stop-color:#87B6FA" offset="1"></stop>
		</linearGradient>
		<path d="M652.3,533.5H467.2v-71.3c0-6.9,5.2-12.8,12-13.3c0.3,0,0.7,0,1,0h77c7.1,0,13.1,5.2,13.1,11.4v81.9
			c0,9.8,7.3,18.2,17,19.1c11.1,1,20.5-7.8,20.5-18.7v-82.4c0-26.9-22.7-48.8-50.6-48.8h-77c-12.5,0-24.8,4.4-34.5,12.6
			c-10.2,8.6-16.1,20-16.1,31.3v78.3h-44.4c-28.1,0-50.9,22.8-50.9,50.9v161.5c0,28.1,22.8,50.9,50.9,50.9h267
			c28.1,0,50.9-22.8,51-50.9V584.4C703.3,556.3,670.5,533.5,652.3,533.5z" class="st10"></path>
	</g>
	<g>
		<path d="M541.1,639.7c0-14.3-12-25.9-26.7-25.9c-14.8,0-26.7,11.6-26.7,25.9c0,8.7,4.5,16.5,11.3,21.1v52.7
			c0,7.9,5.8,14.8,13.6,15.7c9.3,1,17.1-6.2,17.1-15.2v-53.2C536.6,656.2,541.1,648.4,541.1,639.7z" class="st9"></path>
		<linearGradient y2="674.0181" x2="544.7544" y1="674.0181" x1="491.2933" gradientUnits="userSpaceOnUse" id="SVGID_5_">
			<stop style="stop-color:#CFDFFA" offset="0"></stop>
			<stop style="stop-color:#EAF0FC;stop-opacity:0" offset="1"></stop>
		</linearGradient>
		<path d="M544.8,642.1c0-14.3-12-25.9-26.7-25.9c-14.8,0-26.7,11.6-26.7,25.9c0,8.7,4.5,16.5,11.3,21.1V716
			c0,7.9,5.8,14.8,13.6,15.7c9.3,1,17.1-6.2,17.1-15.2v-53.2C540.3,658.6,544.8,650.9,544.8,642.1z" class="st11"></path>
	</g>
</g>
<g>
	<g>
		<g>
			<polygon points="824.5,303.1 822.4,308.7 822.3,308.7" class="st9"></polygon>
			<polygon points="818.2,319.8 814,330.8 813.6,330.6 818,319.7" class="st9"></polygon>
			<polygon points="809.6,341.7 805.1,352.6 804.4,352.4 809,341.5" class="st9"></polygon>
			<polygon points="800.4,363.5 795.6,374.3 794.6,373.8 799.6,363.1" class="st9"></polygon>
			<polygon points="790.5,384.9 785.1,395.5 784.1,394.9 789.5,384.4" class="st9"></polygon>
			<polygon points="779.4,405.8 773.3,415.9 772.1,415.2 778.3,405.2" class="st9"></polygon>
			<path d="M766.4,425.6c-2.5,3.1-5.1,6.1-8.1,8.8l-1-1.2c2.9-2.6,5.5-5.5,7.9-8.5L766.4,425.6z" class="st9"></path>
			<path d="M748,440.6c-1,0.3-2,0.4-3.1,0.5c-1,0-2.1-0.1-3.1-0.3c-2-0.4-4-1.3-5.7-2.3l0.9-1.5c1.6,1,3.4,1.7,5.2,2.1
				c1.8,0.4,3.7,0.3,5.5-0.2L748,440.6z" class="st9"></path>
			<path d="M727.1,430.3c-2.5-3.2-4.5-6.7-5.9-10.5l1.7-0.6c1.4,3.6,3.3,7,5.6,10L727.1,430.3z" class="st9"></path>
			<path d="M719.4,407.9c0.1-1,0.4-2.1,0.8-3.1c0.4-1,1-1.9,1.6-2.8c1.3-1.7,3.1-2.9,4.9-3.9l0.9,1.6
				c-1.7,0.9-3.2,2-4.3,3.4s-1.8,3.1-2,4.9L719.4,407.9z" class="st9"></path>
			<path d="M738.1,394.6c4-0.6,7.9-0.8,11.9-0.8v1.9c-3.9,0-7.8,0.2-11.6,0.8L738.1,394.6z" class="st9"></path>
			<path d="M762,394.7c3.9,0.6,7.8,1.3,11.7,2.4l-0.5,1.9c-3.7-1.1-7.6-1.8-11.4-2.4L762,394.7z" class="st9"></path>
			<path d="M784.8,401.3c3.6,1.8,7,4.1,9.7,7.3l-1.5,1.3c-2.4-2.9-5.7-5-9.1-6.8L784.8,401.3z" class="st9"></path>
			<path d="M797.8,420.4c-0.3,2.1-1,4-1.9,5.8s-1.9,3.6-3,5.2l-1.6-1.1c2.1-3.2,4-6.6,4.6-10.3L797.8,420.4z" class="st9"></path>
			<path d="M785.2,440.7c-2.8,2.9-5.7,5.5-8.6,8.1l-1.2-1.4c2.9-2.6,5.8-5.2,8.5-8.1L785.2,440.7z" class="st9"></path>
			<polygon points="767.4,456.3 758.1,463.6 757,462.1 766.3,454.9" class="st9"></polygon>
			<polygon points="748.5,470.5 738.5,476.9 737.6,475.4 747.5,469" class="st9"></polygon>
			<polygon points="728.3,482.9 717.9,488.5 717.1,487 727.5,481.4" class="st9"></polygon>
			<polygon points="707.2,493.5 696.3,498.1 695.7,496.8 706.5,492.1" class="st9"></polygon>
			<polygon points="685.2,502.3 674,506.1 673.6,504.9 684.7,501" class="st9"></polygon>
			<polygon points="662.7,509.5 651.3,512.5 651,511.4 662.4,508.3" class="st9"></polygon>
		</g>
	</g>
	<g>
		<path d="M632.6,506c0.4,0.1,0.8,0.3,1.2,0.5c2.8,1.8,14.9,10.1,0.9,14c-12.9,3.5-25.7-1.6-30-3.6
			c-0.7-0.3-0.7-1.2-0.1-1.6C608.9,512.4,623,504.1,632.6,506z" class="st9"></path>
		<g>
			<linearGradient y2="512.3708" x2="618.9295" y1="512.3708" x1="647.2" gradientUnits="userSpaceOnUse" id="SVGID_6_">
				<stop style="stop-color:#63A6F9" offset="0"></stop>
				<stop style="stop-color:#FFFFFF;stop-opacity:0.2" offset="1"></stop>
			</linearGradient>
			<path d="M619.2,514.4l-0.3-1c0.2,0,16.3-5,28.3-2l-0.2,1C635.3,509.5,619.4,514.3,619.2,514.4z" class="st12"></path>
		</g>
	</g>
	<g>
		<path d="M312.9,657v-1c0.6,0,1.1,0,1.7-0.1v1C314,656.9,313.5,657,312.9,657z M300.9,656.9c-4.5-0.3-8.5-0.8-12-1.6
			l0.2-1c3.4,0.8,7.4,1.3,11.8,1.6V656.9z M277.7,650.7c-2.1-1.5-3.6-3.2-4.6-5.1c-0.8-1.6-1.3-3.4-1.4-5.3l1-0.1
			c0.1,1.8,0.5,3.4,1.3,4.9c0.9,1.8,2.3,3.4,4.3,4.8L277.7,650.7z M275.3,628.9l-0.9-0.4c1.4-3.2,3.4-6.8,6-10.5l0.8,0.6
			C278.6,622.2,276.6,625.7,275.3,628.9z M288.4,609l-0.8-0.6c2.4-2.9,5.1-5.9,8-9l0.7,0.7C293.4,603.1,290.8,606.1,288.4,609z
			 M304.8,591.5l-0.7-0.7c2.8-2.7,5.7-5.5,8.8-8.2l0.7,0.7C310.5,586.1,307.6,588.8,304.8,591.5z M322.6,575.4l-0.6-0.8
			c4.7-4,8.1-6.7,9.3-7.7l0.6,0.8C330.7,568.8,327.3,571.5,322.6,575.4z" class="st9"></path>
	</g>
</g>
<g>
	<linearGradient y2="780.0217" x2="351.9417" y1="780.0217" x1="272.7317" gradientUnits="userSpaceOnUse" id="SVGID_7_">
		<stop style="stop-color:#B5D1FC" offset="0"></stop>
		<stop style="stop-color:#CDE0FC" offset="1"></stop>
	</linearGradient>
	<path d="M276.3,783c6-11,18.7-21.9,35.2-23.2c2.5-0.2,12-0.7,22.3,4.3c1.1,0.5,18.8,9.3,18,17.6
		c-1,10.9-31.3,15.1-43.4,16.8c-11.1,1.6-31.5,4.4-35.2-3.4C271.7,791.6,273.9,787.5,276.3,783z" class="st13"></path>
	<linearGradient y2="802.3521" x2="380.414" y1="785.9182" x1="322.5798" gradientUnits="userSpaceOnUse" id="SVGID_8_">
		<stop style="stop-color:#B5D1FC" offset="0"></stop>
		<stop style="stop-color:#B9D4FC" offset="0.1129"></stop>
		<stop style="stop-color:#C8DDFC" offset="0.5951"></stop>
		<stop style="stop-color:#CDE0FC" offset="1"></stop>
	</linearGradient>
	<path d="M315.1,791.9c4.6-8.4,14.2-16.7,26.8-17.7c3-0.2,9.9-0.7,17,3.3c7.8,4.4,15.5,14.1,13.1,20
		c-0.6,1.4-2.3,4.1-32.4,6.2c-20,1.4-25.3,0.6-26.8-2.6C311.6,798.4,313.3,795.3,315.1,791.9z" class="st14"></path>
</g>
</svg>
