<?xml version="1.0" encoding="UTF-8"?>
<svg width="122px" height="104px" viewBox="0 0 122 104" version="1.1" xmlns="http://www.w3.org/2000/svg" xmlns:xlink="http://www.w3.org/1999/xlink">
    <!-- Generator: Sketch 55 (78076) - https://sketchapp.com -->
    <title>服务器异常</title>
    <desc>Created with Sketch.</desc>
    <g id="Page-1" stroke="none" stroke-width="1" fill="none" fill-rule="evenodd">
        <g id="空白页" transform="translate(-502.000000, -508.000000)">
            <g id="服务器异常" transform="translate(502.000000, 508.000000)">
                <g id="分组-2">
                    <g id="背景/线" fill="#C3CBD6">
                        <g id="-">
                            <g id="编组" transform="translate(14.200000, 9.200000)" fill-rule="nonzero">
                                <path d="M0.8,73.1 C0.3581722,73.1 -5.68434189e-14,72.7418278 -5.68434189e-14,72.3 C-5.68434189e-14,71.8581722 0.3581722,71.5 0.8,71.5 L70.8,71.5 C71.2418278,71.5 71.6,71.8581722 71.6,72.3 C71.6,72.7418278 71.2418278,73.1 70.8,73.1 L0.8,73.1 Z M74.8,73.1 C74.3581722,73.1 74,72.7418278 74,72.3 C74,71.8581722 74.3581722,71.5 74.8,71.5 L77.3,71.5 C77.7418278,71.5 78.1,71.8581722 78.1,72.3 C78.1,72.7418278 77.7418278,73.1 77.3,73.1 L74.8,73.1 Z M83.8,73.1 C83.3581722,73.1 83,72.7418278 83,72.3 C83,71.8581722 83.3581722,71.5 83.8,71.5 L92.8,71.5 C93.2418278,71.5 93.6,71.8581722 93.6,72.3 C93.6,72.7418278 93.2418278,73.1 92.8,73.1 L83.8,73.1 Z M23.8,80.6 C23.3581722,80.6 23,80.2418278 23,79.8 C23,79.3581722 23.3581722,79 23.8,79 L30.8,79 C31.2418278,79 31.6,79.3581722 31.6,79.8 C31.6,80.2418278 31.2418278,80.6 30.8,80.6 L23.8,80.6 Z M35.3,80.6 C34.8581722,80.6 34.5,80.2418278 34.5,79.8 C34.5,79.3581722 34.8581722,79 35.3,79 L65.8,79 C66.2418278,79 66.6,79.3581722 66.6,79.8 C66.6,80.2418278 66.2418278,80.6 65.8,80.6 L35.3,80.6 Z M80,52.8 C80,51.7333333 81.6,51.7333333 81.6,52.8 L81.6,55.8 C81.6,56.2418278 81.2418278,56.6 80.8,56.6 L77.8,56.6 C76.7333333,56.6 76.7333333,55 77.8,55 L80,55 L80,52.8 Z M81.6,58.8 C81.6,59.8666667 80,59.8666667 80,58.8 L80,55.8 C80,55.3581722 80.3581722,55 80.8,55 L83.8,55 C84.8666667,55 84.8666667,56.6 83.8,56.6 L81.6,56.6 L81.6,58.8 Z M4,28.8 C4,27.7333333 5.6,27.7333333 5.6,28.8 L5.6,31.8 C5.6,32.2418278 5.2418278,32.6 4.8,32.6 L1.8,32.6 C0.733333333,32.6 0.733333333,31 1.8,31 L4,31 L4,28.8 Z M78.1,3.5 L80.8,3.5 C81.8666667,3.5 81.8666667,5.1 80.8,5.1 L78.1,5.1 L78.1,7.8 C78.1,8.86666667 76.5,8.86666667 76.5,7.8 L76.5,5.1 L73.8,5.1 C72.7333333,5.1 72.7333333,3.5 73.8,3.5 L76.5,3.5 L76.5,0.8 C76.5,-0.266666667 78.1,-0.266666667 78.1,0.8 L78.1,3.5 Z M5.6,34.8 C5.6,35.8666667 4,35.8666667 4,34.8 L4,31.8 C4,31.3581722 4.3581722,31 4.8,31 L7.8,31 C8.86666667,31 8.86666667,32.6 7.8,32.6 L5.6,32.6 L5.6,34.8 Z" id="Path-2"></path>
                                <path d="M14.0928932,61.1431458 C14.5642977,60.6717412 15.2714045,61.378848 14.8,61.8502525 L13.7393398,62.9109127 C13.5440777,63.1061748 13.2274952,63.1061748 13.032233,62.9109127 L11.9715729,61.8502525 C11.5001684,61.378848 12.2072751,60.6717412 12.6786797,61.1431458 L13.3857864,61.8502525 L14.0928932,61.1431458 Z M12.6786797,63.9715729 C12.2072751,64.4429774 11.5001684,63.7358706 11.9715729,63.2644661 L13.032233,62.2038059 C13.2274952,62.0085438 13.5440777,62.0085438 13.7393398,62.2038059 L14.8,63.2644661 C15.2714045,63.7358706 14.5642977,64.4429774 14.0928932,63.9715729 L13.3857864,63.2644661 L12.6786797,63.9715729 Z M22.9213203,8.8 C23.3927249,8.32859548 24.0998316,9.03570226 23.6284271,9.50710678 L22.567767,10.567767 C22.3725048,10.7630291 22.0559223,10.7630291 21.8606602,10.567767 L20.8,9.50710678 C20.3285955,9.03570226 21.0357023,8.32859548 21.5071068,8.8 L22.2142136,9.50710678 L22.9213203,8.8 Z M21.5071068,11.6284271 C21.0357023,12.0998316 20.3285955,11.3927249 20.8,10.9213203 L21.8606602,9.86066017 C22.0559223,9.66539803 22.3725048,9.66539803 22.567767,9.86066017 L23.6284271,10.9213203 C24.0998316,11.3927249 23.3927249,12.0998316 22.9213203,11.6284271 L22.2142136,10.9213203 L21.5071068,11.6284271 Z" id="Path复制"></path>
                            </g>
                        </g>
                    </g>
                    <g id="分组" transform="translate(37.000000, 28.000000)">
                        <g id="分组-4" transform="translate(0.000000, 17.000000)" stroke="#C3CBD6">
                            <path d="M9,0 L39,0 C40.6568542,-3.04359188e-16 42,1.34314575 42,3 L42,26 C42,27.6568542 40.6568542,29 39,29 L9,29 C7.34314575,29 6,27.6568542 6,26 L6,3 C6,1.34314575 7.34314575,3.04359188e-16 9,0 Z" id="矩形" stroke-width="1.6" fill="#F5F7F9"></path>
                            <path d="M3,0 L45,0 C46.6568542,-3.04359188e-16 48,1.34314575 48,3 L48,10 C48,11.6568542 46.6568542,13 45,13 L3,13 C1.34314575,13 -9.21676495e-14,11.6568542 -9.23705556e-14,10 L-9.23705556e-14,3 C-9.25734618e-14,1.34314575 1.34314575,3.04359188e-16 3,0 Z M3,17 L45,17 C46.6568542,17 48,18.3431458 48,20 L48,27 C48,28.6568542 46.6568542,30 45,30 L3,30 C1.34314575,30 -4.59823717e-14,28.6568542 -4.61852778e-14,27 L-4.61852778e-14,20 C-4.63881839e-14,18.3431458 1.34314575,17 3,17 Z" id="矩形-copy-2" stroke-width="1.6" fill="#FFFFFF"></path>
                            <path d="M15.5,9 C14.1192881,9 13,7.88071187 13,6.5 C13,5.11928813 14.1192881,4 15.5,4 C16.8807119,4 18,5.11928813 18,6.5 C18,7.88071187 16.8807119,9 15.5,9 Z M7.5,9 C6.11928813,9 5,7.88071187 5,6.5 C5,5.11928813 6.11928813,4 7.5,4 C8.88071187,4 10,5.11928813 10,6.5 C10,7.88071187 8.88071187,9 7.5,9 Z M15.5,26 C14.1192881,26 13,24.8807119 13,23.5 C13,22.1192881 14.1192881,21 15.5,21 C16.8807119,21 18,22.1192881 18,23.5 C18,24.8807119 16.8807119,26 15.5,26 Z M7.5,26 C6.11928813,26 5,24.8807119 5,23.5 C5,22.1192881 6.11928813,21 7.5,21 C8.88071187,21 10,22.1192881 10,23.5 C10,24.8807119 8.88071187,26 7.5,26 Z" id="椭圆形-2" fill="#F5F7F9"></path>
                        </g>
                        <g id="分组-3" transform="translate(26.000000, 0.000000)">
                            <path d="M9.14833827,6.45810967 L29.9558632,10.3539337 C31.5844183,10.6588505 32.6574391,12.2262392 32.3525223,13.8547943 C32.2412082,14.4493209 31.9527817,14.9963151 31.5250828,15.4240139 L14.6133819,32.3357148 C13.4418091,33.5072877 11.5423141,33.5072877 10.3707413,32.3357148 C9.94304237,31.9080159 9.65461582,31.3610217 9.54330172,30.7664952 L5.64747767,9.95897027 C5.34256086,8.33041516 6.41558171,6.76302648 8.04413682,6.45810967 C8.40903359,6.3897895 8.7834415,6.3897895 9.14833827,6.45810967 Z" id="矩形" stroke="#C3CBD6" stroke-width="1.6" fill="#F5F7F9" transform="translate(19.000000, 19.810632) rotate(-315.000000) translate(-19.000000, -19.810632) "></path>
                            <path d="M21.3233535,11.0759985 L20.4899269,16.7790538 C20.4181425,17.270267 19.9968675,17.6344528 19.5004368,17.6344528 L18.94425,17.6344528 C18.4478194,17.6344528 18.0265443,17.270267 17.95476,16.7790538 L17.1213334,11.0759985 C16.9616115,9.98303798 17.718151,8.96753829 18.8111115,8.80781647 C18.9068766,8.79382166 19.0035312,8.78679656 19.1003135,8.78679656 L19.3443734,8.78679656 C20.4489429,8.78679656 21.3443734,9.68222706 21.3443734,10.7867966 C21.3443734,10.8835788 21.3373483,10.9802334 21.3233535,11.0759985 Z M19.3102341,21.4430466 L19.1930466,21.4430466 C18.4487566,21.4430466 17.8453903,20.8396803 17.8453903,20.0953903 L17.8453903,20.0953903 C17.8453903,19.3511003 18.4487566,18.7477341 19.1930466,18.7477341 L19.3102341,18.7477341 C20.0545241,18.7477341 20.6578903,19.3511003 20.6578903,20.0953903 L20.6578903,20.0953903 C20.6578903,20.8396803 20.0545241,21.4430466 19.3102341,21.4430466 Z" id="！" fill="#C3CBD6" fill-rule="nonzero"></path>
                        </g>
                    </g>
                </g>
            </g>
        </g>
    </g>
</svg>