<svg
      xmlns="http://www.w3.org/2000/svg"
      xmlns:xlink="http://www.w3.org/1999/xlink"
      t="1720174593135"
      class="icon"
      viewBox="0 0 1024 1024"
      version="1.1"
      p-id="4412"
      width="200"
      height="200">
      <path
        d="M675.84 184.32c180.224 0 327.68 147.456 327.68 327.68s-147.456 327.68-327.68 327.68-327.68-147.456-327.68-327.68 147.456-327.68 327.68-327.68z m0 40.96c-157.69600001 0-286.72 129.024-286.72 286.72s129.024 286.72 286.72 286.72 286.72-129.024 286.72-286.72-129.024-286.72-286.72-286.72z m-327.68-40.96c180.224 0 327.68 147.456 327.68 327.68s-147.456 327.68-327.68 327.68-327.68-147.456-327.68-327.68 147.456-327.68 327.68-327.68z m0 40.96c-157.69600001 0-286.72 129.024-286.72 286.72s129.024 286.72 286.72 286.72 286.72-129.024 286.72-286.72-129.024-286.72-286.72-286.72z m241.664 538.624c69.632-65.536 106.496-155.648 106.496-251.904 0-96.256-38.912-186.36800001-106.496-251.904 28.672-10.24 57.34400001-14.336 86.016-14.336 147.456 0 266.24 118.784 266.24 266.24s-118.784 266.24-266.24 266.24c-28.672 0-59.392-4.096-86.016-14.336z"
        fill="#f5a52f"
        p-id="4413" />
    </svg>