<?xml version="1.0" standalone="no"?><!DOCTYPE svg PUBLIC "-//W3C//DTD SVG 1.1//EN" "http://www.w3.org/Graphics/SVG/1.1/DTD/svg11.dtd"><svg t="1723690899719" class="icon" viewBox="0 0 1024 1024" version="1.1" xmlns="http://www.w3.org/2000/svg" p-id="9267" width="200" height="200" xmlns:xlink="http://www.w3.org/1999/xlink"><path d="M489.642667 593.408H65.536a25.6 25.6 0 0 1-25.6-25.6V76.629333A25.6 25.6 0 0 1 65.536 51.2h424.106667a25.6 25.6 0 0 1 25.6 25.6v491.008a25.6 25.6 0 0 1-25.6 25.6z m-398.506667-51.2h372.906667V102.4H91.136zM958.464 972.8H65.536a25.6 25.6 0 0 1-25.6-25.6V746.325333a25.6 25.6 0 0 1 25.6-25.6h892.928a25.6 25.6 0 0 1 25.6 25.6v201.045334a25.6 25.6 0 0 1-25.6 25.429333zM91.136 921.6h841.728v-149.674667H91.136zM958.464 280.917333h-290.133333a25.6 25.6 0 0 1-25.6-25.6V76.629333A25.6 25.6 0 0 1 668.330667 51.2h290.133333a25.6 25.6 0 0 1 25.6 25.6V256a25.6 25.6 0 0 1-25.6 24.917333z m-264.533333-51.2h238.933333V102.4h-238.933333zM958.464 593.408h-290.133333a25.6 25.6 0 0 1-25.6-25.6V389.290667a25.6 25.6 0 0 1 25.6-25.6h290.133333a25.6 25.6 0 0 1 25.6 25.6v178.517333a25.6 25.6 0 0 1-25.6 25.6z m-264.533333-51.2h238.933333v-127.317333h-238.933333z" fill="#333333" p-id="9268"></path><path d="M182.442667 669.525333m0-34.133333l0-439.466667q0-34.133333 34.133333-34.133333l309.418667 0q34.133333 0 34.133333 34.133333l0 439.466667q0 34.133333-34.133333 34.133333l-309.418667 0q-34.133333 0-34.133333-34.133333Z" fill="#333333" opacity=".3" p-id="9269"></path></svg>