<svg
  xmlns="http://www.w3.org/2000/svg"
  xmlns:xlink="http://www.w3.org/1999/xlink"
  t="1720175383334"
  class="icon"
  viewBox="0 0 1537 1024"
  version="1.1"
  p-id="7262"
  width="300.1953125"
  height="200"
  style="width: 197px; height: 204px">
  <path
    d="M532.11484674-2.71170372C258.9550886-2.71170372 35.46074071 220.78264418 35.46074071 493.9424023s223.49434789 496.65410602 496.65410603 496.6541048 496.65410602-223.47978311 496.6541048-496.6541048S805.27460364-2.71170372 532.11484674-2.71170372z m2.17012997 928.32080297c-239.02024985 0-434.59418885-195.54480947-434.59418885-434.56506054S295.26472687 56.4789794 534.28497671 56.4789794 968.85003724 252.02378887 968.85003724 491.04403871 773.290663 925.60909925 534.28497671 925.60909925z m0 0"
    fill="#f5a42f"
    p-id="7263" />
  <path
    d="M925.81153631 259.80130522c49.51976377 101.8505037 78.57621371 114.14305602 78.5762137 260.44482992s-77.11975014 104.76343084-54.12218956 206.61393333c-10.19524498-45.15037306-68.16249841 130.95064675-111.73989095 130.95064796-224.07693259 0-282.78698318-137.76689683-282.78698317-361.87295895s81.12502526-306.1777889 250.77391178-388.87579589c39.16430753-19.10880362 75.94001476 111.01165978 116.40057583 126.58125605z m0 0"
    fill="#f5a42f"
    p-id="7264" />
  <path
    d="M1028.76895154-2.71170372C755.6091934-2.71170372 532.11484674 220.78264418 532.11484674 493.9424023s223.46521836 496.65410602 496.6541048 496.6541048 496.65410602-223.47978311 496.65410601-496.6541048S1301.94327443-2.71170372 1028.76895154-2.71170372z m0 931.21916534c-239.02024985 0-434.57962409-195.54480947-434.57962409-434.56505932S789.74870169 59.37734176 1028.76895154 59.37734176 1463.33401207 254.936716 1463.33401207 493.9424023 1267.77463661 928.50746162 1028.76895154 928.50746162z m0 0"
    fill="#f5a42f"
    p-id="7265" />
</svg>