<?xml version="1.0" standalone="no"?><!DOCTYPE svg PUBLIC "-//W3C//DTD SVG 1.1//EN" "http://www.w3.org/Graphics/SVG/1.1/DTD/svg11.dtd"><svg class="icon" width="200px" height="200.00px" viewBox="0 0 1024 1024" version="1.1" xmlns="http://www.w3.org/2000/svg"><path d="M374.784 106.666667a34.133333 34.133333 0 0 0-34.133333 34.133333v102.4a34.133333 34.133333 0 0 0 34.133333 34.133333h550.968889a34.133333 34.133333 0 0 0 34.133333-34.133333v-102.4a34.133333 34.133333 0 0 0-34.133333-34.133333H374.784z m-78.222222 143.928889a5.688889 5.688889 0 0 1-8.988445 4.664888L184.832 182.328889l-87.779556-65.422222a5.688889 5.688889 0 0 1 3.413334-10.24h190.407111a5.688889 5.688889 0 0 1 5.688889 5.688889v138.24zM64.113778 140.060444a5.688889 5.688889 0 0 1 8.931555-4.664888l108.145778 75.264 80.668445 56.433777a5.688889 5.688889 0 0 1-3.242667 10.296889h-188.871111a5.688889 5.688889 0 0 1-5.688889-5.688889V140.060444z" fill="#acacb5" /><path d="M64.113778 354.417778a34.133333 34.133333 0 0 1 34.133333-34.133334H262.257778a34.133333 34.133333 0 0 1 34.133333 34.133334v528.497778a34.133333 34.133333 0 0 1-34.133333 34.133333H98.247111a34.133333 34.133333 0 0 1-34.133333-34.133333V354.417778z m276.536889 0a34.133333 34.133333 0 0 1 34.133333-34.133334h550.968889a34.133333 34.133333 0 0 1 34.133333 34.133334v209.806222a34.133333 34.133333 0 0 1-34.133333 34.133333H374.784a34.133333 34.133333 0 0 1-34.133333-34.133333V354.417778z m34.133333 288.256a34.133333 34.133333 0 0 0-34.133333 34.133333v206.165333a34.133333 34.133333 0 0 0 34.133333 34.133334h550.968889a34.133333 34.133333 0 0 0 34.133333-34.133334v-206.165333a34.133333 34.133333 0 0 0-34.133333-34.133333H374.784z" fill="#dedee1" /></svg>