<?xml version="1.0" standalone="no"?><!DOCTYPE svg PUBLIC "-//W3C//DTD SVG 1.1//EN" "http://www.w3.org/Graphics/SVG/1.1/DTD/svg11.dtd"><svg class="icon" width="200px" height="200.00px" viewBox="0 0 1024 1024" version="1.1" xmlns="http://www.w3.org/2000/svg"><path d="M25.67 89.57h972.66a2.4 2.4 0 0 1 2.4 2.4v253.6H23.27V92a2.4 2.4 0 0 1 2.4-2.43z" fill="#ACADB5" /><path d="M353.26 379.54h647.46V495.9H353.26zM353.26 525.71h647.46v116.36H353.26zM353.26 671.89h647.46v116.36H353.26zM353.26 934.43h591.61a55.85 55.85 0 0 0 55.86-55.85v-60.51H353.26zM323.5 379.54H23.27v499a55.85 55.85 0 0 0 55.86 55.85H323.5z" fill="#DEDEE1" /></svg>