<?xml version="1.0" standalone="no"?><!DOCTYPE svg PUBLIC "-//W3C//DTD SVG 1.1//EN" "http://www.w3.org/Graphics/SVG/1.1/DTD/svg11.dtd"><svg t="1725605265984" class="icon" viewBox="0 0 1024 1024" version="1.1" xmlns="http://www.w3.org/2000/svg" p-id="26871" xmlns:xlink="http://www.w3.org/1999/xlink" width="200" height="200"><path d="M725.333333 554.666667h170.666667v256h-170.666667zM426.666667 298.666667h170.666666v512h-170.666666zM128 597.333333h170.666667v213.333334H128z" fill="#acadb5" p-id="26872" data-spm-anchor-id="a313x.search_index.0.i27.6bfd3a817A1CMP" class="selected"></path><path d="M0 896m21.333333 0l981.333334 0q21.333333 0 21.333333 21.333333l0 0q0 21.333333-21.333333 21.333334l-981.333334 0q-21.333333 0-21.333333-21.333334l0 0q0-21.333333 21.333333-21.333333Z" fill="#bfbfbf" p-id="26873"></path><path d="M128 426.666667h170.666667v128H128zM426.666667 85.333333h170.666666v170.666667h-170.666666zM725.333333 384h170.666667v128h-170.666667z" fill="#dedee1" p-id="26874" data-spm-anchor-id="a313x.search_index.0.i28.6bfd3a817A1CMP" class=""></path></svg>