<?xml version="1.0" standalone="no"?><!DOCTYPE svg PUBLIC "-//W3C//DTD SVG 1.1//EN" "http://www.w3.org/Graphics/SVG/1.1/DTD/svg11.dtd"><svg class="icon" width="200px" height="200.00px" viewBox="0 0 1024 1024" version="1.1" xmlns="http://www.w3.org/2000/svg"><path fill="#333333" d="M888 792H200v-624A8 8 0 0 0 192 160h-56A8 8 0 0 0 128 168v688c0 4.416 3.584 8 8 8h752a8 8 0 0 0 8-8V800a8 8 0 0 0-8-8zM288 603.968a64 64 0 1 0 128 0 64 64 0 0 0-128 0z m118.016-224a48 48 0 1 0 96 0 48 48 0 0 0-96 0zM563.968 608a96 96 0 1 0 192 0 96 96 0 0 0-192 0z m148.032-313.984a56 56 0 1 0 112 0 56 56 0 0 0-112 0z"  fill-opacity=".65" /></svg>