<?xml version="1.0" standalone="no"?><!DOCTYPE svg PUBLIC "-//W3C//DTD SVG 1.1//EN" "http://www.w3.org/Graphics/SVG/1.1/DTD/svg11.dtd"><svg class="icon" width="200px" height="200.00px" viewBox="0 0 1024 1024" version="1.1" xmlns="http://www.w3.org/2000/svg"><path d="M928 106.666667a42.666667 42.666667 0 0 1 42.666667 42.666666v725.333334a42.666667 42.666667 0 0 1-42.666667 42.666666H96a42.666667 42.666667 0 0 1-42.666667-42.666666V149.333333a42.666667 42.666667 0 0 1 42.666667-42.666666h832zM96 373.333333v501.333334h832V373.333333H96z" fill="#acacb5" /><path d="M394.666667 373.333333v160h234.666666V373.333333h42.666667v160h256v181.333334H672v160h-42.666667V714.666667H394.666667v160h-42.666667V714.666667H96V533.333333h256V373.333333h42.666667z" fill="#dedee1" /></svg>