<?xml version="1.0" standalone="no"?><!DOCTYPE svg PUBLIC "-//W3C//DTD SVG 1.1//EN" "http://www.w3.org/Graphics/SVG/1.1/DTD/svg11.dtd"><svg class="icon" width="200px" height="199.03px" viewBox="0 0 1029 1024" version="1.1" xmlns="http://www.w3.org/2000/svg"><path d="M217.92957 390.192333c31.526558 0 57.065117 22.774867 57.065117 50.8724v378.881668c0 28.148712-25.589739 50.8724-57.065117 50.872401H75.804162c-31.526558 0-57.065117-22.774867-57.065116-50.872401V441.064733c0-28.097533 25.538559-50.8724 57.065116-50.8724h142.125408zM588.315445 0c31.526558 0 57.065117 23.184303 57.065117 51.793631v767.18036c0 28.660507-25.589739 51.793631-57.065117 51.793631H446.190038c-31.526558 0-57.116296-23.184303-57.116297-51.793631V51.793631C389.073741 23.184303 414.66348 0 446.241217 0h142.125408z m370.334696 247.248054c31.526558 0 57.116296 23.337842 57.116297 52.151887v519.164615c0 28.762866-25.589739 52.100708-57.116297 52.100707h-142.125407c-31.526558 0-57.065117-23.337842-57.065117-52.100707V299.399941c0-28.814046 25.589739-52.151887 57.065117-52.151887h142.125407z" fill="#959CA6" /><path d="M986.440597 938.47807c23.644918 0 42.734863 18.987586 42.734864 42.530146a42.837222 42.837222 0 0 1-42.888402 42.581325H48.474322a42.581325 42.581325 0 1 1-5.93682-84.753214l5.783281-0.358257h938.119814z" fill="#959CA6" opacity=".596" /></svg>