<?xml version="1.0" standalone="no"?><!DOCTYPE svg PUBLIC "-//W3C//DTD SVG 1.1//EN" "http://www.w3.org/Graphics/SVG/1.1/DTD/svg11.dtd"><svg class="icon" width="200px" height="166.78px" viewBox="0 0 1228 1024" version="1.1" xmlns="http://www.w3.org/2000/svg"><path d="M102.4 51.2C71.68 51.2 51.2 71.68 51.2 102.4v819.2c0 30.72 20.48 51.2 51.2 51.2h1024c30.72 0 51.2-20.48 51.2-51.2V102.4c0-30.72-20.48-51.2-51.2-51.2H102.4z" fill="#676E82" /><path d="M368.64 419.84l-61.44 102.4h40.96v30.72h-61.44v20.48h51.2v30.72h-51.2v61.44h-61.44v-61.44h-51.2v-30.72h51.2v-20.48h-51.2v-30.72h40.96l-61.44-102.4h71.68l30.72 81.92 30.72-81.92h81.92z m102.4 245.76V450.56l-61.44 10.24v-61.44l81.92-20.48h61.44v286.72h-81.92z m163.84 0v-61.44c81.92-71.68 122.88-102.4 122.88-133.12 0-20.48-10.24-30.72-40.96-30.72-20.48 0-40.96 0-61.44 10.24v-61.44c20.48-10.24 51.2-10.24 81.92-10.24 71.68 0 102.4 30.72 102.4 81.92 0 40.96-10.24 71.68-81.92 122.88l-20.48 20.48h102.4v61.44h-204.8z m317.44 0c-30.72 0-51.2 0-61.44-10.24v-51.2c20.48 0 40.96 10.24 61.44 10.24 30.72 0 51.2 0 51.2-30.72 0-20.48-20.48-30.72-61.44-30.72H921.6v-61.44h20.48c30.72 0 61.44 0 61.44-30.72 0-20.48-20.48-20.48-40.96-20.48s-40.96 0-51.2 10.24v-61.44c10.24 0 40.96-10.24 61.44-10.24 61.44 0 112.64 20.48 112.64 81.92 0 20.48-10.24 51.2-40.96 61.44 30.72 10.24 51.2 30.72 51.2 61.44-10.24 61.44-61.44 81.92-143.36 81.92z" fill="#FFFFFF" /></svg>