<?xml version="1.0" standalone="no"?><!DOCTYPE svg PUBLIC "-//W3C//DTD SVG 1.1//EN" "http://www.w3.org/Graphics/SVG/1.1/DTD/svg11.dtd"><svg class="icon" width="200px" height="200.00px" viewBox="0 0 1024 1024" version="1.1" xmlns="http://www.w3.org/2000/svg"><path d="M517.12 185.856l334.336 242.688-127.488 393.216H310.272L182.784 429.056 517.12 185.856m0-75.776L110.592 405.504l155.136 478.208h502.784l155.136-478.208L517.12 110.08z" fill="#D1D1D1" /><path d="M527.36 377.856l153.088 110.08-58.368 177.664h-189.44L374.272 487.936 527.36 377.856m0-75.776L302.08 464.384 388.096 727.04h278.528L752.64 464.384 527.36 302.08z" fill="#D1D1D1" /><path d="M416.768 689.664L332.8 467.968l178.688-186.88 88.576 224.256 46.592 224.768z" fill="#9C9C9C" /><path d="M500.224 336.896l70.144 177.152 36.864 177.664-168.448-29.696-70.656-186.88 132.096-138.24M522.24 225.28L296.96 460.8l97.28 256 291.84 51.2-56.32-271.36-107.52-271.36z" fill="#9C9C9C" /></svg>