<?xml version="1.0" encoding="utf-8"?>
<svg version="1.1" xmlns:xlink="http://www.w3.org/1999/xlink" width="35px" height="32px" xmlns="http://www.w3.org/2000/svg">
  <g transform="matrix(1 0 0 1 -1840 -354 )">
    <path d="M 10.579927884615385 28.886363636363637  C 10.706129807692308 28.75  10.76923076923077 28.575757575757574  10.76923076923077 28.363636363636363  L 10.76923076923077 24  C 10.76923076923077 23.787878787878782  10.706129807692308 23.613636363636363  10.579927884615385 23.477272727272727  C 10.453725961538462 23.340909090909093  10.292467948717949 23.272727272727273  10.096153846153845 23.272727272727273  L 3.3653846153846154 23.272727272727273  C 3.169070512820513 23.272727272727273  3.0078125 23.340909090909093  2.881610576923077 23.477272727272727  C 2.7554086538461537 23.613636363636363  2.6923076923076925 23.787878787878782  2.6923076923076925 24  L 2.6923076923076925 28.363636363636363  C 2.6923076923076925 28.575757575757574  2.7554086538461537 28.75  2.881610576923077 28.886363636363637  C 3.0078125 29.022727272727273  3.169070512820513 29.09090909090909  3.3653846153846154 29.09090909090909  L 10.096153846153845 29.09090909090909  C 10.292467948717949 29.09090909090909  10.453725961538462 29.022727272727273  10.579927884615385 28.886363636363637  Z M 10.579927884615385 20.159090909090907  C 10.706129807692308 20.022727272727273  10.76923076923077 19.848484848484844  10.76923076923077 19.636363636363637  L 10.76923076923077 15.272727272727273  C 10.76923076923077 15.060606060606059  10.706129807692308 14.886363636363637  10.579927884615385 14.75  C 10.453725961538462 14.613636363636363  10.292467948717949 14.545454545454547  10.096153846153845 14.545454545454547  L 3.3653846153846154 14.545454545454547  C 3.169070512820513 14.545454545454547  3.0078125 14.613636363636363  2.881610576923077 14.75  C 2.7554086538461537 14.886363636363637  2.6923076923076925 15.060606060606059  2.6923076923076925 15.272727272727273  L 2.6923076923076925 19.636363636363637  C 2.6923076923076925 19.848484848484844  2.7554086538461537 20.022727272727273  2.881610576923077 20.159090909090907  C 3.0078125 20.295454545454547  3.169070512820513 20.363636363636363  3.3653846153846154 20.363636363636363  L 10.096153846153845 20.363636363636363  C 10.292467948717949 20.363636363636363  10.453725961538462 20.295454545454547  10.579927884615385 20.159090909090907  Z M 21.349158653846153 28.886363636363637  C 21.475360576923077 28.75  21.53846153846154 28.575757575757574  21.53846153846154 28.363636363636363  L 21.53846153846154 24  C 21.53846153846154 23.787878787878782  21.475360576923077 23.613636363636363  21.349158653846153 23.477272727272727  C 21.22295673076923 23.340909090909093  21.061698717948715 23.272727272727273  20.865384615384617 23.272727272727273  L 14.134615384615385 23.272727272727273  C 13.938301282051283 23.272727272727273  13.77704326923077 23.340909090909093  13.650841346153845 23.477272727272727  C 13.524639423076923 23.613636363636363  13.461538461538462 23.787878787878782  13.461538461538462 24  L 13.461538461538462 28.363636363636363  C 13.461538461538462 28.575757575757574  13.524639423076923 28.75  13.650841346153845 28.886363636363637  C 13.77704326923077 29.022727272727273  13.938301282051283 29.09090909090909  14.134615384615385 29.09090909090909  L 20.865384615384617 29.09090909090909  C 21.061698717948715 29.09090909090909  21.22295673076923 29.022727272727273  21.349158653846153 28.886363636363637  Z M 10.579927884615385 11.431818181818183  C 10.706129807692308 11.295454545454547  10.76923076923077 11.121212121212121  10.76923076923077 10.90909090909091  L 10.76923076923077 6.545454545454547  C 10.76923076923077 6.333333333333329  10.706129807692308 6.15909090909091  10.579927884615385 6.022727272727273  C 10.453725961538462 5.886363636363637  10.292467948717949 5.818181818181817  10.096153846153845 5.818181818181817  L 3.3653846153846154 5.818181818181817  C 3.169070512820513 5.818181818181817  3.0078125 5.886363636363637  2.881610576923077 6.022727272727273  C 2.7554086538461537 6.15909090909091  2.6923076923076925 6.333333333333329  2.6923076923076925 6.545454545454547  L 2.6923076923076925 10.90909090909091  C 2.6923076923076925 11.121212121212121  2.7554086538461537 11.295454545454547  2.881610576923077 11.431818181818183  C 3.0078125 11.568181818181817  3.169070512820513 11.636363636363637  3.3653846153846154 11.636363636363637  L 10.096153846153845 11.636363636363637  C 10.292467948717949 11.636363636363637  10.453725961538462 11.568181818181817  10.579927884615385 11.431818181818183  Z M 21.349158653846153 20.159090909090907  C 21.475360576923077 20.022727272727273  21.53846153846154 19.848484848484844  21.53846153846154 19.636363636363637  L 21.53846153846154 15.272727272727273  C 21.53846153846154 15.060606060606059  21.475360576923077 14.886363636363637  21.349158653846153 14.75  C 21.22295673076923 14.613636363636363  21.061698717948715 14.545454545454547  20.865384615384617 14.545454545454547  L 14.134615384615385 14.545454545454547  C 13.938301282051283 14.545454545454547  13.77704326923077 14.613636363636363  13.650841346153845 14.75  C 13.524639423076923 14.886363636363637  13.461538461538462 15.060606060606059  13.461538461538462 15.272727272727273  L 13.461538461538462 19.636363636363637  C 13.461538461538462 19.848484848484844  13.524639423076923 20.022727272727273  13.650841346153845 20.159090909090907  C 13.77704326923077 20.295454545454547  13.938301282051283 20.363636363636363  14.134615384615385 20.363636363636363  L 20.865384615384617 20.363636363636363  C 21.061698717948715 20.363636363636363  21.22295673076923 20.295454545454547  21.349158653846153 20.159090909090907  Z M 32.11838942307693 28.886363636363637  C 32.24459134615385 28.75  32.30769230769231 28.575757575757574  32.30769230769231 28.363636363636363  L 32.30769230769231 24  C 32.30769230769231 23.787878787878782  32.24459134615385 23.613636363636363  32.11838942307693 23.477272727272727  C 31.9921875 23.340909090909093  31.83092948717949 23.272727272727273  31.634615384615383 23.272727272727273  L 24.903846153846153 23.272727272727273  C 24.70753205128205 23.272727272727273  24.54627403846154 23.340909090909093  24.420072115384617 23.477272727272727  C 24.29387019230769 23.613636363636363  24.23076923076923 23.787878787878782  24.23076923076923 24  L 24.23076923076923 28.363636363636363  C 24.23076923076923 28.575757575757574  24.29387019230769 28.75  24.420072115384617 28.886363636363637  C 24.54627403846154 29.022727272727273  24.70753205128205 29.09090909090909  24.903846153846153 29.09090909090909  L 31.634615384615383 29.09090909090909  C 31.83092948717949 29.09090909090909  31.9921875 29.022727272727273  32.11838942307693 28.886363636363637  Z M 21.349158653846153 11.431818181818183  C 21.475360576923077 11.295454545454547  21.53846153846154 11.121212121212121  21.53846153846154 10.90909090909091  L 21.53846153846154 6.545454545454547  C 21.53846153846154 6.333333333333329  21.475360576923077 6.15909090909091  21.349158653846153 6.022727272727273  C 21.22295673076923 5.886363636363637  21.061698717948715 5.818181818181817  20.865384615384617 5.818181818181817  L 14.134615384615385 5.818181818181817  C 13.938301282051283 5.818181818181817  13.77704326923077 5.886363636363637  13.650841346153845 6.022727272727273  C 13.524639423076923 6.15909090909091  13.461538461538462 6.333333333333329  13.461538461538462 6.545454545454547  L 13.461538461538462 10.90909090909091  C 13.461538461538462 11.121212121212121  13.524639423076923 11.295454545454547  13.650841346153845 11.431818181818183  C 13.77704326923077 11.568181818181817  13.938301282051283 11.636363636363637  14.134615384615385 11.636363636363637  L 20.865384615384617 11.636363636363637  C 21.061698717948715 11.636363636363637  21.22295673076923 11.568181818181817  21.349158653846153 11.431818181818183  Z M 32.11838942307693 20.159090909090907  C 32.24459134615385 20.022727272727273  32.30769230769231 19.848484848484844  32.30769230769231 19.636363636363637  L 32.30769230769231 15.272727272727273  C 32.30769230769231 15.060606060606059  32.24459134615385 14.886363636363637  32.11838942307693 14.75  C 31.9921875 14.613636363636363  31.83092948717949 14.545454545454547  31.634615384615383 14.545454545454547  L 24.903846153846153 14.545454545454547  C 24.70753205128205 14.545454545454547  24.54627403846154 14.613636363636363  24.420072115384617 14.75  C 24.29387019230769 14.886363636363637  24.23076923076923 15.060606060606059  24.23076923076923 15.272727272727273  L 24.23076923076923 19.636363636363637  C 24.23076923076923 19.848484848484844  24.29387019230769 20.022727272727273  24.420072115384617 20.159090909090907  C 24.54627403846154 20.295454545454547  24.70753205128205 20.363636363636363  24.903846153846153 20.363636363636363  L 31.634615384615383 20.363636363636363  C 31.83092948717949 20.363636363636363  31.9921875 20.295454545454547  32.11838942307693 20.159090909090907  Z M 32.11838942307693 11.431818181818183  C 32.24459134615385 11.295454545454547  32.30769230769231 11.121212121212121  32.30769230769231 10.90909090909091  L 32.30769230769231 6.545454545454547  C 32.30769230769231 6.333333333333329  32.24459134615385 6.15909090909091  32.11838942307693 6.022727272727273  C 31.9921875 5.886363636363637  31.83092948717949 5.818181818181817  31.634615384615383 5.818181818181817  L 24.903846153846153 5.818181818181817  C 24.70753205128205 5.818181818181817  24.54627403846154 5.886363636363637  24.420072115384617 6.022727272727273  C 24.29387019230769 6.15909090909091  24.23076923076923 6.333333333333329  24.23076923076923 6.545454545454547  L 24.23076923076923 10.90909090909091  C 24.23076923076923 11.121212121212121  24.29387019230769 11.295454545454547  24.420072115384617 11.431818181818183  C 24.54627403846154 11.568181818181817  24.70753205128205 11.636363636363637  24.903846153846153 11.636363636363637  L 31.634615384615383 11.636363636363637  C 31.83092948717949 11.636363636363637  31.9921875 11.568181818181817  32.11838942307693 11.431818181818183  Z M 34.01141826923077 1.0681818181818166  C 34.67047275641026 1.7803030303030276  35 2.6363636363636367  35 3.6363636363636367  L 35 28.363636363636363  C 35 29.363636363636363  34.67047275641026 30.219696969696972  34.01141826923077 30.931818181818183  C 33.352363782051285 31.64393939393939  32.56009615384615 32  31.634615384615383 32  L 3.3653846153846154 32  C 2.4399038461538463 32  1.647636217948718 31.64393939393939  0.9885817307692307 30.931818181818183  C 0.32952724358974356 30.219696969696972  0 29.363636363636363  0 28.363636363636363  L 0 3.6363636363636367  C 0 2.6363636363636367  0.32952724358974356 1.7803030303030276  0.9885817307692307 1.0681818181818166  C 1.647636217948718 0.35606060606060197  2.4399038461538463 0  3.3653846153846154 0  L 31.634615384615383 0  C 32.56009615384615 0  33.352363782051285 0.35606060606060197  34.01141826923077 1.0681818181818166  Z " fill-rule="nonzero" fill="#aaaaaa" stroke="none" transform="matrix(1 0 0 1 1840 354 )" />
  </g>
</svg>